<svg xmlns="http://www.w3.org/2000/svg" width="18" height="18" viewBox="0 0 18 18">
    <path id="패스_5" data-name="패스 5"
        d="M16.752,5.858a1.987,1.987,0,0,0-2.813,0L12.87,6.924,16.347,10.4l1.069-1.069a1.987,1.987,0,0,0,0-2.813ZM6.124,13.673a1.963,1.963,0,0,0-.48.778L4.593,17.606a.857.857,0,0,0,.206.874.846.846,0,0,0,.874.206l3.154-1.051a2.057,2.057,0,0,0,.778-.48l5.943-5.946L12.067,7.727ZM3.41,7.361A3.411,3.411,0,0,0,0,10.771v9.094a3.411,3.411,0,0,0,3.41,3.41H12.5a3.411,3.411,0,0,0,3.41-3.41v-3.41a1.137,1.137,0,0,0-2.273,0v3.41A1.135,1.135,0,0,1,12.5,21H3.41a1.135,1.135,0,0,1-1.137-1.137V10.771A1.135,1.135,0,0,1,3.41,9.634H6.82a1.137,1.137,0,1,0,0-2.273Z"
        transform="translate(0 -5.275)" fill="#01af94" />
</svg>