<svg xmlns="http://www.w3.org/2000/svg" viewBox="0 0 15.75 18">
    <path id="패스_48" data-name="패스 48"
        d="M7.893,0A1.124,1.124,0,0,0,6.768,1.125V1.8a5.628,5.628,0,0,0-4.5,5.513v.661A6.766,6.766,0,0,1,.563,12.459l-.26.292a1.125,1.125,0,0,0,.84,1.874h13.5a1.125,1.125,0,0,0,.84-1.874l-.26-.292a6.76,6.76,0,0,1-1.705-4.486V7.313A5.628,5.628,0,0,0,9.018,1.8V1.125A1.124,1.124,0,0,0,7.893,0ZM9.486,17.343a2.251,2.251,0,0,0,.657-1.593h-4.5a2.252,2.252,0,0,0,3.843,1.593Z"
        transform="translate(-0.019)" />
</svg>